<?xml version="1.0" encoding="utf-8"?>
<!-- Generator: Adobe Illustrator 26.3.1, SVG Export Plug-In . SVG Version: 6.00 Build 0)  -->
<svg version="1.1" id="Layer_1" xmlns="http://www.w3.org/2000/svg" xmlns:xlink="http://www.w3.org/1999/xlink" x="0px" y="0px"
	 viewBox="0 0 841.9 595.3" style="enable-background:new 0 0 841.9 595.3;" xml:space="preserve">
<style type="text/css">
	.st0{display:none;}
	.st1{display:inline;opacity:0.1;}
	.st2{fill:none;stroke:#000000;stroke-miterlimit:10;}
</style>
<g id="Layer_1_00000127740449098201515010000002639259014694457485_" class="st0">
	<g class="st1">
		<rect y="0" class="st2" width="841.9" height="595.3"/>
		<line class="st2" x1="0" y1="496.1" x2="841.9" y2="496.1"/>
		<line class="st2" x1="0" y1="396.9" x2="841.9" y2="396.9"/>
		<line class="st2" x1="0" y1="297.6" x2="841.9" y2="297.6"/>
		<line class="st2" x1="0" y1="198.4" x2="841.9" y2="198.4"/>
		<line class="st2" x1="0" y1="99.2" x2="841.9" y2="99.2"/>
		<line class="st2" x1="701.6" y1="0" x2="701.6" y2="595.3"/>
		<path class="st2" d="M561.3,0c0,131.8,0,263.6,0,395.4c0,66.6,0,133.3,0,199.9"/>
		<line class="st2" x1="420.9" y1="0" x2="420.9" y2="595.3"/>
		<line class="st2" x1="280.6" y1="0" x2="280.6" y2="595.3"/>
		<line class="st2" x1="140.3" y1="0" x2="140.3" y2="595.3"/>
	</g>
	<g class="st1">
		<g>
			<circle class="st2" cx="420.9" cy="297.4" r="295.3"/>
			<circle class="st2" cx="420.9" cy="297.4" r="246.1"/>
			<circle class="st2" cx="420.9" cy="297.4" r="196.9"/>
			<circle class="st2" cx="420.9" cy="297.4" r="147.6"/>
			<circle class="st2" cx="420.9" cy="297.4" r="98.4"/>
			<circle class="st2" cx="420.9" cy="297.4" r="49.2"/>
		</g>
		<g>
			<line class="st2" x1="331.4" y1="18.1" x2="511.1" y2="578.6"/>
			<line class="st2" x1="420.9" y1="297.4" x2="716.2" y2="298.6"/>
			<line class="st2" x1="420.9" y1="297.4" x2="513.3" y2="17"/>
			<line class="st2" x1="420.9" y1="297.4" x2="182.7" y2="122.9"/>
			<line class="st2" x1="660.5" y1="124.3" x2="180.7" y2="470.1"/>
		</g>
	</g>
</g>
<g id="Layer_4">
	<g id="Layer_3">
		<path class="st2" d="M614.2,475.7"/>
		<g>
			<path d="M614.4,49.2c-3.9,2-8.3,4.6-12,6.8c-38.1,23.5-75.1,48.7-111.3,74.9c-9.9,7.3-19.8,14.7-29.3,22.6
				c-4.7,3.9-9.3,7.9-13.1,12.7c-7.5,9.6-12.2,21.2-14.6,33c-1.2,5.9-1.7,11.9,1,17.4c4.9,11.1,13.3,20.3,21.4,29.2
				c16.9,18.4,35.2,35.2,49.5,56.2c9.7,14.2,17.5,31.6,14.5,49.5c-0.4,2.7-0.9,5.6-1.4,8.3c-5,29-16.1,51.3-41.5,67.6
				c-16.5,10.9-35,19.8-54.9,21.8c-9.9,1.1-19.4-0.2-29-1.7c-3.4-0.6-6.9-0.8-10.4-0.9l0.6-0.7c2.1-2.6,3.2-5.9,4.6-8.9
				c3.9-9.1,6.9-18.8,8.9-28.4c3.8-18.8,5-38.2,1.2-56.5c-1.5-6.1-3.7-14.1-9-17.3c-1.1-0.5-2.3-0.2-3.5-0.1
				c-2.8,0.5-4.9,1.3-7.9,2.7c-10.4,5.1-18.5,12.1-26.8,20.6c-4.5,4.5-9.1,9.6-14.4,14.7c-7.8,7.6-16.9,14.8-26.3,20.5
				c-29.6,18.4-61.4,34.4-95.4,43.1c-26,6.9-54.5,10-80.9,2.5c-6.9-2-14.3-4.9-20.7-8.2c-0.8-0.4-1.7-0.8-2.5-1.2l-2.4-1.4l-4.7-2.8
				c-1.5-1-3-2.1-4.5-3.1c-15.5-10.4-26.4-24.7-30.6-43.1c-8.7-38.3,20.1-93.9,45.6-121.2c0.6-0.6,1.2-1.2,1.8-1.8l0.9-0.9
				c0.4-0.5,0.3-1,0-1.7l3.2,3.1c-0.5-0.2-0.8-0.2-1.1-0.2c-0.3,0-0.5,0.1-0.6,0.3l-0.8,1c-1.4,1.5-1.9,2.4-3.1,3.9
				c-17.9,24.4-29.6,54-33.3,83.9c-0.9,9.3-0.9,18.5,1.6,27.3c2.6,8.3,6.8,16.2,12.9,22.2c5.2,5.3,11.7,9.2,18.2,12.8
				c1.6,0.8,4.7,2.3,6.2,3c1,0.4,5.1,2.1,6.3,2.5c27.7,10.3,58,5.3,85.6-4c31.9-10.6,61.1-28.1,88.3-47.7
				c10-7.7,17.7-16.7,26.7-26.3c13.3-14,30.1-28.3,50.1-32.2c17.7-3.3,33.9,5.5,40.7,22.2c14.1,36.3-7.9,88.8-30.7,117.3
				c-1,1.4-2.3,2.5-3,4.1l-0.5-0.8c5.7-2.9,12.3-4.1,18.3-5.5c8.9-1.9,16.9-4.5,24.9-8.3c13-6.3,24.9-14.8,36-23.9
				c22.5-17.9,35.5-31.3,41.7-60.4c5-24.1-15.8-50.6-30-69c-7.6-9.6-15.6-19-23.3-28.8c-9-12-20.6-26-21.5-41.5
				c0.7-16.2,8.5-35.2,19.6-47c12.1-12,26.3-21.8,39.9-31.9c32.6-23.4,66-45.8,100.1-67c6.5-4,13.3-8.1,19.9-11.8l4.1-2.2
				L614.4,49.2L614.4,49.2z"/>
		</g>
		<g>
			<path d="M614.5,49.2c-35.5,34.9-80.3,60.8-118.6,91.5c-17.8,14.3-35.6,30.5-46.8,49.8c-5.6,9.8-8.9,19.8-9.2,30.2
				c-0.1,11.2,0.4,22.3,1.5,33.5c3.4,36.2,11.7,72.7,23.2,107.5c1.9,5.9,3.6,11.8,5.4,17.7c3.5,11.6,7,23.8,13.3,34.1
				c1.6,2.5,3.4,5.1,5.7,6.7l0.2,0.1c0.1,0.1,0.1,0,0.2,0.1c0.1,0.1,0,0,0.1,0c0.4,0,0.6,0,1,0c3.9-0.5,7.4-2.1,11.1-4
				c8.1-4.4,15.3-10.1,22.5-15.9c9.6-7.9,19.4-15.4,29.5-22.7c19.4-14.6,40-29.7,58.8-45.1c14.1-11.8,27.3-25.1,40.7-37.5
				c13.6-13,27.8-25.4,42.6-37.1c11-8.9,22-17.8,32.6-27.1c5.9-5.2,12-10.9,18.6-15.3c4.9-3.3,11.1-7,16.1-10.1l2-1.2l1-0.6
				c0.1-0.1,0,0,0,0c0,0.1,0,0.1,0,0.1c0,0.1,0.1,0.1,0.2,0.1s0.1-0.1,0.1-0.1c0,0,0,0,0,0l-0.2,0c-13.7,0.4-27.5,0.9-41.1,2.3
				c-5.3,0.5-11,1.4-16.3,2.2c-17.9,2.2-35.4,6-51.8,13.4c-15,6.7-28.9,17.6-36.4,32.2c-9.2,17.2-9.4,38.9-1.3,56.7
				c0.5,1,1.2,2.7,1.8,3.8c5.9,11.6,11.1,23.5,15.2,35.9c6.1,18.6,10.4,38.4,8,58c-0.8,6.5-2.6,13-5.5,18.7l-1-0.3
				c0.8-6.3,0.7-12.4-0.2-18.4c-3.5-24.1-14.8-46.2-26.7-67.1c-3.8-6.8-8.2-13.3-12.2-20c-6.3-11.1-9.9-23.6-10.7-36.4
				c-2.3-38.4,21.7-72.2,58.3-83.5c20.1-6.7,42.3-6.7,62.8-4.9c18,0.8,37.7,3.7,55.6,5.8l1.2,0.1l0.3,0c0.2,0,0.4,0.1,0.5,0.2
				c1,0.4,1.5,1.8,0.8,2.7c-0.2,0.3-1.1,1-1.3,1.2l-1.8,1.6l-7.1,6.2c-4.6,4.1-9.2,8.2-13.2,12.9c-2.8,3.3-6.1,7.3-8.9,10.8
				c-11.2,13.4-22.2,26.8-33.3,40.2c-14.1,17-29.6,32.6-45.1,48.2c-11.2,11.5-23.2,22.7-35.9,32.4c-17.8,13.3-36.4,25.6-55.1,37.6
				c-16.1,10.7-33.5,18.9-51.5,25.8c-7.1,2.6-14,5.6-21.7,6.8l-1.5,0.1c-1,0.1-2.2,0-3.3-0.1c-2-0.3-3.9-1.4-5.2-2.5
				c-3-2.4-5-5-7.2-7.9c-4-5.3-7.6-10.7-11.2-16.1c-7.1-10.8-13.7-21.9-18.8-33.8c-5-11.8-9.4-23.8-13.5-36
				c-11.8-35.4-21.1-72.7-23-110.4c-0.4-9.1,0.7-18.2,3.2-26.9c19.7-66.8,114.1-113.4,174.5-137c8.9-3.5,17.7-6.9,26.8-10.1
				C613.9,48.3,614.5,49.2,614.5,49.2L614.5,49.2z"/>
		</g>
	</g>
</g>
</svg>
