<?xml version="1.0" encoding="utf-8"?>
<!-- Generator: Adobe Illustrator 26.3.1, SVG Export Plug-In . SVG Version: 6.00 Build 0)  -->
<svg version="1.1" xmlns="http://www.w3.org/2000/svg" xmlns:xlink="http://www.w3.org/1999/xlink" x="0px" y="0px"
	 viewBox="0 0 841.89 595.28" style="enable-background:new 0 0 841.89 595.28;" xml:space="preserve">
<style type="text/css">
	.st0{display:none;}
	.st1{display:inline;opacity:0.1;}
	.st2{fill:none;stroke:#000000;stroke-miterlimit:10;}
</style>
<g id="Layer_1" class="st0">
	<g class="st1">
		<rect class="st2" width="841.89" height="595.28"/>
		<line class="st2" x1="0" y1="496.06" x2="841.89" y2="496.06"/>
		<line class="st2" x1="0" y1="396.85" x2="841.89" y2="396.85"/>
		<line class="st2" x1="0" y1="297.64" x2="841.89" y2="297.64"/>
		<line class="st2" x1="0" y1="198.43" x2="841.89" y2="198.43"/>
		<line class="st2" x1="0" y1="99.21" x2="841.89" y2="99.21"/>
		<line class="st2" x1="701.57" y1="0" x2="701.57" y2="595.28"/>
		<path class="st2" d="M561.26,0c0,131.79,0,263.58,0,395.37c0,66.64,0,133.27,0,199.91"/>
		<line class="st2" x1="420.94" y1="0" x2="420.94" y2="595.28"/>
		<line class="st2" x1="280.63" y1="0" x2="280.63" y2="595.28"/>
		<line class="st2" x1="140.31" y1="0" x2="140.31" y2="595.28"/>
	</g>
	<g class="st1">
		<g>
			<circle class="st2" cx="420.94" cy="297.44" r="295.28"/>
			<circle class="st2" cx="420.94" cy="297.44" r="246.07"/>
			<circle class="st2" cx="420.94" cy="297.44" r="196.86"/>
			<circle class="st2" cx="420.94" cy="297.44" r="147.64"/>
			<circle class="st2" cx="420.94" cy="297.44" r="98.43"/>
			<circle class="st2" cx="420.94" cy="297.44" r="49.21"/>
		</g>
		<g>
			<line class="st2" x1="331.36" y1="18.06" x2="511.11" y2="578.62"/>
			<line class="st2" x1="420.94" y1="297.44" x2="716.23" y2="298.58"/>
			<line class="st2" x1="420.94" y1="297.44" x2="513.28" y2="16.96"/>
			<line class="st2" x1="420.94" y1="297.44" x2="182.73" y2="122.95"/>
			<line class="st2" x1="660.55" y1="124.28" x2="180.71" y2="470.08"/>
		</g>
	</g>
</g>
<g id="Layer_4">
	<g id="Layer_3">
		<path class="st2" d="M614.19,475.69"/>
		<g>
			<path d="M614.41,49.19c-3.86,2.01-8.31,4.61-12.04,6.83c-38.08,23.46-75.12,48.68-111.31,74.94
				c-9.93,7.31-19.84,14.69-29.26,22.6c-4.66,3.92-9.33,7.92-13.09,12.71c-7.46,9.55-12.22,21.2-14.65,33.03
				c-1.26,5.92-1.62,11.8,0.89,17.44c4.66,11.18,13,20.55,20.9,29.67c16.47,18.59,34.52,35.77,48.34,56.78
				c8.86,13.54,16.06,29.83,13.53,46.53c-4.34,28-13.82,48.79-35.92,67.23c-7.22,6.3-15.54,11.15-24.02,15.56
				c-11.33,5.83-23.44,10.58-36.09,12.56c-6.3,1.04-12.68,1.3-18.91,1.16c-6.23-0.1-12.34-0.56-18.38,0.42c0,0-1.15,0.15-1.15,0.15
				c0,0,0.62-0.92,0.62-0.92c16.88-26.51,26.25-63.41,22.32-94.6c-2.87-18.89-11.13-33.69-31.93-22.79
				c-11.17,5.75-20.32,14.26-28.89,23.59c-9.04,10.06-18.49,20.95-29.71,29.19c-22.42,16.02-46.79,29.04-72.42,39.3
				c-38.45,14.67-82.77,23.49-121.67,5.85c-12.45-5.91-24.6-13.32-33.87-23.75c-9.19-10.57-14.36-24.35-15.04-38.27
				c-0.44-27.48,9.68-53.61,22.32-77.44c6.1-11.09,13.15-21.77,21.71-31.13c0,0,0.87-0.93,0.87-0.93c0.41-0.48,0.27-1.02,0.04-1.73
				c0,0,3.24,3.1,3.24,3.1c-0.46-0.15-0.81-0.21-1.06-0.16c-0.27,0.03-0.46,0.13-0.61,0.28c-24.34,26.69-48.99,81.22-40.97,117.36
				c4.15,16.28,14.19,28.86,28.72,37.23c3.1,2.05,7.37,4.18,10.7,5.89c1,0.51,5.53,2.27,6.73,2.82c27.82,10.64,57.84,6.05,85.53-2.9
				c21.95-6.78,42.59-16.85,62.29-28.58c11.18-6.68,22.38-13.56,33.05-21.05c10.55-7.62,19.16-16.84,28.53-26.26
				c12.37-12.25,28.16-25.02,45.87-28.37c24.45-4.14,34.81,16.96,35.65,37.84c0.96,20.78-3.88,41.23-11.3,60.44
				c-4.91,12.66-11.46,24.55-19.27,35.62c0,0-0.53-0.77-0.53-0.77c6.04-1.8,12.38-2.14,18.46-2.83
				c24.89-2.09,45.29-14.79,64.08-30.31c14.46-9.69,27.1-22.65,33.82-38.91c2.87-6.68,4.94-13.97,6.61-21.19
				c0.97-4.09,1.8-8.26,1.61-12.52c-1.09-23.25-18.45-44.45-32.57-62.15c-7.79-9.5-15.96-18.78-23.79-28.41
				c-8.96-11.5-21.25-25.93-22.05-41.09c0.68-16.18,8.54-35.24,19.59-47.03c12.15-11.98,26.27-21.78,39.93-31.89
				c32.63-23.42,66-45.76,100.06-67.03c6.48-4.03,13.26-8.14,19.92-11.85c0,0,4.11-2.18,4.11-2.18S614.41,49.19,614.41,49.19
				L614.41,49.19z"/>
		</g>
		<g>
			<path d="M614.46,49.16c-52.57,38.46-160.36,89.18-179.42,153.01c-2.46,8.46-2.75,16.57-2.11,25.36
				c0.52,9.16,1.48,18.27,2.79,27.37c3.37,24.33,9.47,48.29,15.7,72.19c4.78,17.9,9.75,35.87,16.2,53.27
				c4.26,11.37,9.1,22.97,15.68,33.08c1.64,2.41,3.54,5.03,5.77,6.67c0,0,0.24,0.16,0.24,0.16c0.08,0.06,0.11,0.04,0.16,0.08
				c0.15,0.09,0.04,0,0.06,0.05c0.22,0,0.44,0.01,0.66,0.02c0.12,0,0.21,0.03,0.35,0.02c0,0,0.43-0.05,0.43-0.05
				c0.93-0.01,1.85-0.29,2.77-0.44c11.57-3.26,22.18-9.83,32.52-16c10.61-6.46,20.93-13.51,31.15-20.68
				c19.86-14.29,40.88-29.3,59.7-45.01c18.97-16.2,36.01-34.48,54.22-51.51c22.93-21.48,46.93-41.66,69.44-63.6
				c7.76-6.87,16.36-12.34,24.45-18.69c0,0,0.94-0.71,0.94-0.71c0.13-0.1,0.01-0.01-0.01,0.01c-0.03,0.04-0.07,0.09-0.09,0.14
				c-0.04,0.11-0.04,0.2-0.01,0.29c0.03,0.08,0.1,0.18,0.21,0.25c0.05,0.03,0.11,0.05,0.16,0.06c0.09,0-0.14,0-0.2,0
				c-7.44-0.13-14.91-0.2-22.34-0.16c-10.92,0.04-21.84,0.53-32.69,1.69c-13.88,1.1-27.86,2.69-40.91,6.46
				c-35.13,9.53-62.3,33.13-61.91,71.63c0.18,9.91,2.55,19.87,6.84,28.82c3.55,6.99,7.32,13.95,10.53,21.11
				c9.18,20.42,16.66,42.14,17.71,64.69c0.3,9.6-0.72,19.51-4.41,28.38c0,0-0.95-0.3-0.95-0.3c5.58-29.59-9.55-61.76-23.05-87.44
				c-5.95-11.47-14.06-21.95-17.74-34.49c-13.19-42.44,9.17-85.13,51.17-99.17c19.26-6.85,39.92-7.81,60.07-7.05
				c18.83-0.04,39.38,1.91,58.18,3.25c1.55,0.17,2.45,2.22,1.33,3.42c-0.13,0.18-0.42,0.37-0.44,0.39c0,0-0.96,0.68-0.96,0.68
				s-1.93,1.35-1.93,1.35c-7.62,5.37-15.3,10.99-21.66,17.74c-4.28,4.49-8.29,9.29-12.57,13.97c-8.52,9.27-16.92,18.61-25.36,27.94
				c-16.75,18.75-34.49,36.51-52.51,54.02c-13.5,13.46-27.83,26.17-43.35,37.27c-15.43,10.98-30.88,21.67-46.66,32.15
				c-18.56,12.11-37.08,24.64-57.34,33.91c-4.21,1.79-8.91,3.7-13.7,4.12c-1.03,0.1-2.21,0.06-3.26-0.04
				c-1.96-0.27-3.87-1.39-5.19-2.43c-2.99-2.36-4.95-5.04-7.12-7.92c-3.83-5.33-7.06-10.89-10.21-16.58
				c-18.22-33.68-32.6-69.47-40.46-107c-3.93-18.77-6.9-37.84-8.09-57.04c-0.91-13.37-1.28-27.32,3.11-40.14
				c13.99-42.38,58.1-72.43,94.42-94.88c32.23-19.7,66.34-35.98,99.12-54.55C613.92,48.32,614.46,49.16,614.46,49.16L614.46,49.16z"
				/>
		</g>
	</g>
</g>
</svg>
